<svg height="71" viewBox="0 0 360 71" width="360" xmlns="http://www.w3.org/2000/svg" xmlns:xlink="http://www.w3.org/1999/xlink"><filter id="a" height="119%" width="103.4%" x="-1.7%" y="-9.5%"><feGaussianBlur in="SourceGraphic" stdDeviation="2"/></filter><path d="m73.205003 562c-16.1065925 0-33.6212314 11.518006-50.8570656 31.5-17.23583424 19.981994-15.4332975 31.5 9.5091083 31.5 19.2069863 0 32.6026063-6.893352 41.2072307-17.538781l-15.122824-2.966759c-5.1523949 5.759003-10.7488694 9.947368-19.5312909 9.947368-10.1625162 0-9.6458373-5.933518-2.4536297-15.619113l7.9049488-10.64543c7.1922075-9.685595 14.5138006-15.619113 22.1318665-15.619113 6.5835138 0 6.4748733 4.188365 4.6151788 9.947368l15.6090464-2.966759c2.4582503-10.645429-.6096317-17.538781-13.0125693-17.538781zm58.822289 1-3.835955 25.518625h-18.444906l7.160353-25.518625h-12.972709l-23.934075 61h19.7905972l6.9396568-24.732092h19.845253l-3.717724 24.732092h19.790597l2.35162-61zm63.392171 0h-39.419463l.614379 9.700573h14.238008l7.343974 41.598854h-18.94735l.614379 9.700573h60.13661l-3.908939-9.700573h-18.94735l-12.053317-41.598854h14.238008zm38.762103 0 10.859985 40.550143h-1.304074l-24.491704-40.550143h-11.245773l30.932837 61h24.12571l-9.657209-40.550143h1.136709l31.305893 40.550143h17.15606l-53.004065-61zm72.277552 0h-13.955015l13.813844 14.681948h-18.766053l-19.29463-14.681948h-13.257264l80.791861 61h28.208139zm10.176736 26 19.364146 23h-1.01047l-33.98953-23z" fill-opacity=".193303" fill-rule="evenodd" filter="url(#a)" transform="translate(-7 -558)"/></svg>